<mxfile host="app.diagrams.net" modified="2022-01-19T02:55:30.663Z" agent="5.0 (X11; Linux x86_64) AppleWebKit/537.36 (KHTML, like Gecko) Chrome/94.0.4606.81 Safari/537.36" etag="XVDvDsvbwz2cw0Nut3RS" version="14.9.6" type="github">
  <diagram id="vViw6lPuudZy-3pwCxiu" name="Page-1">
    <mxGraphModel dx="5121" dy="3460" grid="1" gridSize="10" guides="1" tooltips="1" connect="1" arrows="1" fold="1" page="1" pageScale="1" pageWidth="850" pageHeight="1100" math="0" shadow="0">
      <root>
        <mxCell id="0" />
        <mxCell id="1" parent="0" />
        <mxCell id="oti9_DhbvbvEriuWTuH9-1" value="" style="endArrow=none;html=1;" parent="1" edge="1">
          <mxGeometry width="50" height="50" relative="1" as="geometry">
            <mxPoint x="-360" y="690" as="sourcePoint" />
            <mxPoint x="2040" y="690" as="targetPoint" />
          </mxGeometry>
        </mxCell>
        <mxCell id="oti9_DhbvbvEriuWTuH9-2" value="" style="endArrow=none;html=1;" parent="1" edge="1">
          <mxGeometry width="50" height="50" relative="1" as="geometry">
            <mxPoint x="-360" y="690" as="sourcePoint" />
            <mxPoint x="-360" y="-390" as="targetPoint" />
          </mxGeometry>
        </mxCell>
        <mxCell id="oti9_DhbvbvEriuWTuH9-3" value="" style="endArrow=none;html=1;" parent="1" edge="1">
          <mxGeometry width="50" height="50" relative="1" as="geometry">
            <mxPoint x="2040" y="690" as="sourcePoint" />
            <mxPoint x="2040" y="-390" as="targetPoint" />
          </mxGeometry>
        </mxCell>
        <mxCell id="oti9_DhbvbvEriuWTuH9-7" value="" style="endArrow=none;html=1;" parent="1" edge="1">
          <mxGeometry width="50" height="50" relative="1" as="geometry">
            <mxPoint x="-360" y="-390" as="sourcePoint" />
            <mxPoint x="840" y="-1100" as="targetPoint" />
          </mxGeometry>
        </mxCell>
        <mxCell id="oti9_DhbvbvEriuWTuH9-8" value="" style="endArrow=none;html=1;" parent="1" edge="1">
          <mxGeometry width="50" height="50" relative="1" as="geometry">
            <mxPoint x="2040" y="-390" as="sourcePoint" />
            <mxPoint x="840" y="-1100" as="targetPoint" />
          </mxGeometry>
        </mxCell>
      </root>
    </mxGraphModel>
  </diagram>
</mxfile>
